<?xml version="1.0" encoding="utf-8"?>
<!DOCTYPE svg PUBLIC "-//W3C//DTD SVG 1.1//EN" "http://www.w3.org/Graphics/SVG/1.1/DTD/svg11.dtd">
<svg version="1.1" xmlns="http://www.w3.org/2000/svg" viewBox="172 176 912 912">
 <g fill="#eec155">
  <path d="M734.77 1223.75 c0 -2.33 33.55 -86.95 90.01 -226.92 l5.27 -12.86 -2.82 -3.06 c-4.04 -4.53 -7.96 -12.86 -7.96 -17.14 0 -5.14 2.82 -11.51 6.12 -13.84 2.45 -1.71 2.82 -3.06 2.94 -11.88 l0.12 -10.04 4.90 -4.41 c4.65 -4.29 4.90 -4.90 4.90 -12 0.12 -6.12 0.73 -8.45 3.43 -12.61 1.84 -2.82 5.27 -6 7.59 -7.10 3.80 -1.84 4.29 -2.57 5.02 -8.82 1.35 -11.14 6.74 -19.10 16.04 -23.88 2.94 -1.47 4.29 -3.43 5.88 -8.33 2.20 -6.61 26.94 -73.48 30.62 -82.78 1.84 -4.65 2.57 -5.14 6.25 -5.14 2.33 0 4.16 0.49 4.16 1.10 0 0.49 -5.27 15.31 -11.76 32.70 -6.37 17.51 -13.84 37.60 -16.53 44.70 -2.57 7.23 -4.78 13.35 -4.78 13.72 0 0.24 3.67 0.86 8.33 1.22 4.53 0.37 9.31 0.86 10.53 1.10 1.59 0.24 2.94 -0.61 3.67 -2.20 0.73 -1.47 9.92 -20.33 20.33 -42 10.41 -21.55 19.59 -39.31 20.33 -39.31 0.73 0 2.20 0.98 3.43 2.20 1.84 2.20 1.71 3.06 -3.43 14.45 -5.76 13.10 -16.29 36 -26.33 57.19 -3.43 7.23 -6.25 13.72 -6.25 14.33 0 0.61 3.92 3.67 8.82 6.74 11.39 7.47 22.53 18.12 26.08 25.10 3.80 7.59 4.78 16.90 3.06 31.11 -2.69 23.15 -10.90 50.94 -20.70 70.29 -4.16 8.33 -6.25 10.41 -3.06 3.06 3.92 -8.82 10.04 -31.72 12.74 -47.39 1.96 -12 2.57 -19.47 2.20 -31.84 -0.37 -15.19 -0.61 -16.53 -3.67 -21.19 -4.29 -6.49 -22.17 -19.96 -35.02 -26.45 -9.18 -4.53 -11.27 -5.02 -18.98 -5.02 -14.08 -0.12 -23.15 6.25 -23.39 16.29 l-0.12 4.41 8.57 0.86 c9.18 0.86 26.33 6.37 37.35 12.12 3.67 1.84 6.25 3.43 5.51 3.55 -0.61 0 -10.53 -1.71 -22.04 -3.67 -23.27 -4.16 -30.62 -4.53 -36.74 -1.96 -5.27 2.20 -9.18 8.45 -9.18 14.57 0 4.29 0.12 4.53 4.16 4.53 8.69 0 34.17 10.16 42.37 16.90 l3.06 2.57 -7.35 -2.20 c-10.29 -3.18 -35.15 -8.69 -39.19 -8.69 -4.90 0 -11.14 3.31 -12.74 6.86 -1.84 4.04 -1.71 10.90 0.24 12.37 0.73 0.61 5.39 2.33 10.04 3.80 4.78 1.47 11.76 4.53 15.55 6.86 7.47 4.41 19.35 13.96 19.35 15.43 0 0.49 -4.29 -1.22 -9.43 -3.80 -11.51 -5.76 -30.13 -12.12 -35.64 -12.12 -6 0 -10.04 4.53 -10.04 11.27 0 6.37 2.08 14.45 3.67 14.45 0.73 0 1.22 -0.49 1.22 -1.22 0 -2.33 5.51 -1.22 10.41 1.96 6.61 4.41 16.29 13.84 18.49 17.88 0.98 1.84 1.71 6.37 1.71 10.04 0 8.20 1.10 11.39 6.12 17.14 5.76 6.49 2.45 5.39 -4.78 -1.59 -6.74 -6.61 -8.94 -12.37 -8.57 -22.17 0.24 -3.31 -0.37 -6.74 -1.10 -7.59 -1.59 -1.96 -13.47 -7.84 -14.08 -6.98 -0.24 0.24 -16.90 41.51 -36.98 91.72 -44.09 110.09 -47.88 118.91 -54.86 129.44 -5.63 8.45 -13.10 16.53 -13.10 14.21z"/>
  <path d="M678.43 1188.97 c-5.27 -4.29 -20.82 -11.63 -39.80 -18.86 -10.16 -3.92 -21.68 -8.69 -25.72 -10.78 -29.64 -14.70 -44.94 -39.19 -42.98 -68.82 0.73 -13.10 3.06 -21.19 9.43 -33.80 10.53 -21.19 27.80 -39.43 61.11 -64.78 55.47 -42.25 72.13 -57.80 89.40 -83.27 25.96 -38.45 33.55 -77.76 24.12 -123.69 -1.71 -7.72 -2.69 -14.45 -2.45 -14.94 2.69 -4.78 8.45 5.51 14.94 26.57 5.63 18.37 7.84 32.33 7.84 49.60 0 26.70 -5.14 47.51 -18.25 74.09 -9.92 20.21 -23.27 38.21 -42.74 57.56 -13.35 13.35 -22.90 21.19 -66.86 54.74 -24.86 18.86 -40.53 36.86 -46.05 52.78 -3.18 9.18 -2.82 24.98 0.61 34.04 6.98 17.76 18.98 29.51 48 47.03 13.59 8.20 29.76 19.96 31.72 23.02 1.71 2.69 1.47 2.57 -2.33 -0.49z"/>
  <path d="M717.25 1182.36 c-1.47 -8.45 -9.43 -28.41 -15.31 -38.33 -14.70 -24.37 -35.64 -41.64 -61.23 -50.33 -4.16 -1.35 -8.33 -2.57 -9.18 -2.57 -0.73 0 -2.20 -0.49 -3.18 -1.10 -2.69 -1.71 0.49 -5.02 4.65 -5.02 5.63 0 28.53 10.16 38.45 17.02 14.82 10.29 28.78 25.72 35.64 39.55 6.37 12.86 12 33.19 11.51 41.39 l-0.37 5.51 -0.98 -6.12z"/>
  <path d="M798.45 1133.99 c18.25 -39.55 24.25 -51.43 26.21 -51.43 2.57 0 2.57 -0.37 -2.20 11.63 -2.33 5.76 -4.04 10.41 -3.80 10.41 0.24 0 2.82 -1.59 5.76 -3.55 2.94 -1.96 11.88 -6.74 19.96 -10.65 35.27 -17.02 56.21 -28.90 68.82 -39.19 3.18 -2.57 6.37 -4.16 8.57 -4.16 3.18 0.12 2.82 0.61 -6.37 9.18 -15.55 14.57 -36 29.02 -63.07 44.82 -33.68 19.72 -43.84 27.55 -54.86 42.13 -3.06 4.04 -6 7.84 -6.61 8.57 -0.61 0.61 2.82 -7.35 7.59 -17.76z"/>
  <path d="M517.40 1080.47 c-71.39 -3.67 -132.50 -22.66 -184.30 -57.31 -50.45 -33.80 -85.60 -73.72 -110.95 -126.13 -18.12 -37.60 -26.70 -74.46 -26.57 -115.11 0.12 -73.35 29.51 -141.93 93.32 -217.98 5.14 -6 19.47 -22.90 31.84 -37.35 36.98 -43.23 51.68 -64.41 61.11 -87.93 9.92 -24.86 11.51 -52.66 4.16 -74.33 -5.27 -15.55 -11.27 -25.35 -22.78 -36.74 -47.64 -47.27 -133.60 -27.31 -155.89 36.37 -8.57 24.37 -0.49 43.47 22.17 51.92 26.82 10.04 40.17 22.29 48 43.84 1.47 4.04 3.06 10.78 3.55 14.94 0.86 7.96 -1.35 26.94 -3.31 28.17 -0.73 0.49 -0.86 -0.98 -0.37 -3.43 2.20 -11.76 -5.14 -29.88 -16.41 -40.66 -7.10 -6.74 -9.55 -8.08 -33.43 -18.86 -14.08 -6.37 -25.10 -19.35 -29.02 -34.17 -0.86 -2.94 -1.96 -5.27 -2.57 -5.27 -3.06 0 0.61 19.84 5.51 29.51 4.78 9.31 14.21 17.88 27.55 24.98 15.43 8.20 23.27 15.55 29.02 27.31 4.53 9.06 4.65 9.67 4.65 22.29 -0.12 11.14 -0.61 13.96 -3.31 20.57 -6.74 15.92 -18.37 28.53 -32.82 35.76 l-5.51 2.82 6.86 -7.35 c11.02 -11.51 16.16 -24.61 16.16 -40.17 -0.12 -16.90 -6.12 -26.94 -24.98 -41.76 -7.23 -5.63 -15.06 -12.61 -17.51 -15.43 -2.33 -2.94 -4.65 -4.78 -5.14 -4.29 -2.20 2.08 4.65 12.12 16.78 24.74 15.43 16.04 18.49 21.19 19.10 33.06 0.37 8.57 0.37 8.57 -1.22 3.67 -3.92 -11.76 -8.33 -16.90 -22.17 -26.21 -24.98 -17.02 -36.62 -40.53 -36.62 -74.21 0 -56.82 33.19 -108.26 82.42 -127.73 16.78 -6.61 24.61 -7.96 45.31 -7.96 22.04 -0.12 31.59 1.96 48.86 10.16 13.84 6.61 23.39 13.72 34.41 25.35 13.72 14.45 22.78 31.35 27.80 51.31 2.57 10.53 2.94 40.53 0.61 51.31 -5.76 26.57 -17.27 50.09 -38.58 78.99 -9.80 13.23 -12.12 16.04 -40.17 48.98 -30.74 36.13 -41.51 49.96 -57.56 73.84 -37.11 55.60 -53.88 107.28 -52.17 160.67 0.98 30.25 6.86 55.72 19.23 84.50 15.55 36.49 35.88 65.88 66.74 96.87 27.06 27.19 57.56 49.23 92.09 66.99 44.94 23.02 74.33 31.84 134.83 40.78 3.80 0.61 3.92 0.86 3.92 6 l0 5.51 -7.59 -0.24 c-4.29 -0.12 -11.02 -0.37 -15.06 -0.61z"/>
  <path d="M557.20 1051.94 c0 -1.71 1.71 -9.43 3.67 -17.14 7.10 -26.94 19.47 -47.64 57.80 -96.74 36.49 -46.66 45.56 -60.37 58.66 -87.56 9.18 -18.98 15.06 -36.49 18.98 -55.60 2.94 -14.21 3.18 -17.27 2.57 -38.09 -0.61 -24.37 -3.06 -38.21 -10.04 -57.56 -14.70 -40.29 -46.41 -75.44 -86.58 -95.64 -19.47 -9.80 -4.16 -7.10 18 3.18 45.31 20.82 84.01 62.58 99.68 107.52 7.10 20.45 9.18 33.31 9.18 57.80 0 19.84 -0.37 23.39 -3.31 36 -7.59 31.23 -20.94 57.19 -44.82 87.07 -5.02 6.37 -26.08 28.78 -46.66 49.60 -50.45 51.07 -62.70 67.72 -73.35 99.32 -2.08 6 -3.80 9.55 -3.80 7.84z"/>
  <path d="M516.17 989.36 c7.72 -10.41 16.53 -29.02 22.53 -47.03 8.08 -24.25 9.31 -32.33 9.31 -59.15 0 -29.15 2.57 -31.72 6.61 -6.37 6.12 38.21 -7.35 80.33 -36.37 113.15 -7.84 8.82 -8.82 8.57 -2.08 -0.61z"/>
  <path d="M369.83 973.93 c-6.98 -9.80 -11.63 -19.96 -15.55 -34.17 -3.18 -11.39 -3.43 -13.59 -3.31 -36 0 -20.45 0.37 -25.23 2.69 -33.31 3.92 -14.33 9.43 -27.31 16.90 -39.92 l6.86 -11.39 -4.41 -10.65 c-10.53 -26.08 -12.86 -50.21 -7.35 -76.78 7.35 -35.76 26.08 -67.35 53.39 -90.01 l6.86 -5.88 -12.37 -0.49 c-8.69 -0.37 -13.72 -1.10 -16.53 -2.57 -5.02 -2.69 -4.29 -4.04 3.06 -5.02 12 -1.59 18.61 -3.67 35.27 -11.14 29.64 -13.23 42.86 -16.41 71.64 -17.39 23.63 -0.73 36 0.98 56.21 7.72 52.66 17.63 93.07 58.66 110.09 112.05 9.06 28.29 10.90 62.94 4.78 90.38 -1.35 6.12 -1.47 5.02 -1.47 -13.47 0 -16.29 -0.61 -22.66 -2.82 -33.43 -13.10 -61.23 -51.56 -110.34 -104.09 -132.99 -46.78 -20.21 -90.74 -14.70 -129.44 16.04 -8.82 6.98 -20.21 19.59 -25.47 28.29 -2.33 3.67 -1.96 3.43 4.16 -2.08 14.33 -13.35 28.53 -21.68 47.76 -28.29 10.41 -3.55 14.94 -4.53 24.98 -4.90 l12.25 -0.49 -6.74 1.84 c-26.82 7.59 -52.78 22.53 -71.03 40.90 -32.33 32.57 -48.98 77.52 -42.37 114.87 2.45 13.96 8.82 31.96 15.31 43.23 4.78 8.33 4.78 8.57 1.59 6.25 -1.84 -1.22 -5.76 -4.90 -8.82 -7.96 -2.94 -3.06 -5.88 -5.63 -6.37 -5.63 -2.45 0 -13.10 25.72 -16.29 39.80 -2.94 12.37 -4.53 30.13 -3.55 40.29 l0.73 9.67 4.53 -8.45 c9.80 -18.61 22.53 -32.57 41.39 -45.43 19.84 -13.59 37.84 -21.55 75.68 -33.31 34.66 -10.78 56.45 -21.80 69.19 -35.02 3.92 -4.04 7.35 -5.51 7.35 -3.31 0 1.96 -7.59 12.86 -13.23 18.86 -12.25 13.23 -23.39 18.98 -60.74 31.59 -34.41 11.51 -44.94 15.68 -57.68 22.66 -33.19 18 -56.21 42.98 -62.58 67.97 -2.82 11.02 -1.84 26.21 2.20 36.49 1.71 4.16 2.94 7.59 2.69 7.59 -0.12 0 -2.57 -3.18 -5.39 -6.98z"/>
  <path d="M837.14 815.71 c-6.86 -4.53 -11.02 -15.31 -8.08 -20.82 1.96 -3.80 4.16 -3.18 6 1.84 1.10 2.94 2.94 4.90 5.76 6.25 3.80 1.84 4.53 1.84 8.20 0.12 3.80 -1.84 5.02 -3.80 7.47 -11.14 1.22 -3.67 4.90 -1.96 6.12 2.94 1.71 6.98 -0.12 13.23 -5.39 18.49 -4.04 4.16 -5.27 4.65 -10.53 4.65 -3.80 0 -7.23 -0.86 -9.55 -2.33z"/>
  <path d="M837.88 784.61 c-1.84 -1.96 -2.69 -4.41 -2.69 -7.84 0 -6 2.82 -8.94 8.82 -8.94 5.63 0 8.69 3.31 8.69 9.80 0 3.06 -0.86 5.88 -2.20 7.35 -3.06 3.43 -9.31 3.18 -12.61 -0.37z"/>
  <path d="M819.88 774.57 c-3.31 -3.18 -4.16 -10.04 -1.59 -12.61 0.86 -0.86 3.80 -1.47 6.61 -1.47 4.04 0 5.76 0.61 7.10 2.69 4.29 6 0.61 14.45 -6 14.45 -1.71 0 -4.53 -1.35 -6.12 -3.06z"/>
  <path d="M959.73 771.14 c0.49 -3.55 0 -4.53 -4.53 -8.69 -12.74 -11.51 -33.43 -17.14 -43.35 -11.88 -5.51 2.94 -6.86 2.08 -6.86 -4.41 0 -7.96 6.37 -10.78 22.29 -9.92 18.37 0.86 41.39 16.04 41.39 27.06 0 4.65 -2.33 8.94 -5.76 10.53 -4.04 1.84 -3.92 1.84 -3.18 -2.69z"/>
  <path d="M853.06 769.54 c-5.14 -5.02 -2.94 -13.72 3.92 -15.68 3.18 -0.86 4.41 -0.61 6.37 1.10 4.41 3.92 4.16 12.49 -0.49 15.55 -2.33 1.59 -7.84 1.10 -9.80 -0.98z"/>
  <path d="M806.41 758.65 c-3.80 -3.67 -4.16 -10.29 -0.86 -13.23 5.51 -5.02 14.33 0.24 14.08 8.45 -0.12 2.33 -0.86 5.02 -1.59 6 -2.33 2.82 -8.33 2.20 -11.63 -1.22z"/>
  <path d="M979.44 748.36 c0.37 -3.92 -0.24 -5.39 -3.43 -9.06 -9.67 -11.14 -32.08 -21.31 -49.11 -22.53 -12.37 -0.86 -15.55 0 -17.63 4.90 l-1.59 3.92 -1.35 -3.43 c-1.71 -4.53 -1.71 -5.14 0.49 -9.31 2.57 -5.02 8.08 -6.86 20.21 -6.86 15.31 0.12 29.64 5.27 44.82 16.04 13.59 9.55 18.98 22.17 12.37 28.41 -4.04 3.80 -5.27 3.31 -4.78 -2.08z"/>
  <path d="M857.84 748.85 c-3.92 -3.80 -4.16 -11.39 -0.73 -14.57 6.25 -5.63 15.31 2.69 12.25 11.39 -2.33 6.61 -6.86 7.84 -11.51 3.18z"/>
  <path d="M792.93 741.62 c-3.43 -3.43 -4.04 -8.69 -1.47 -12.25 1.10 -1.59 2.82 -2.08 6.37 -1.71 4.16 0.37 5.27 0.98 7.23 4.65 2.08 3.92 2.20 4.78 0.61 7.96 -2.45 5.02 -8.45 5.63 -12.74 1.35z"/>
  <path d="M1022.06 729.74 c1.22 -1.47 5.39 -4.16 9.06 -6 7.84 -4.04 16.65 -11.14 22.66 -18.37 5.27 -6.25 5.51 -11.02 1.35 -21.19 -4.90 -12 -10.65 -20.45 -21.19 -31.47 -21.55 -22.53 -51.92 -39.19 -83.64 -46.05 -12.61 -2.69 -38.94 -3.06 -49.11 -0.73 -8.94 2.08 -9.92 4.04 -10.65 23.02 -0.49 12.37 -0.12 16.16 2.08 24.25 3.43 12.37 9.55 24.98 17.14 35.02 5.63 7.35 5.88 7.96 3.43 8.45 -4.53 0.73 -19.35 -16.16 -25.96 -29.64 -7.35 -15.06 -9.55 -24.37 -9.55 -39.43 0.24 -47.03 40.66 -80.82 92.21 -77.40 42.62 2.94 87.44 32.70 105.32 70.05 6.12 12.86 8.57 23.39 8.57 36.86 0 13.84 -2.33 23.63 -8.57 36 -9.31 18.61 -25.96 32.45 -44.82 37.35 -9.92 2.57 -11.27 2.45 -8.33 -0.73z m48.98 -66.01 c1.59 -20.57 -7.35 -42.74 -24.25 -60.62 -12 -12.74 -21.19 -19.47 -36.62 -26.82 -17.88 -8.69 -27.92 -10.90 -48.25 -11.02 -15.68 0 -18 0.24 -26.94 3.43 -5.39 1.84 -12.37 5.02 -15.55 7.10 -5.51 3.43 -19.96 17.88 -18.98 18.86 0.24 0.24 3.43 0 6.98 -0.73 9.92 -1.84 35.51 -1.47 46.29 0.73 36.74 7.59 69.93 26.70 93.07 53.39 5.14 6 9.80 13.23 14.08 22.04 l6.37 13.10 1.59 -5.14 c0.86 -2.82 1.84 -9.31 2.20 -14.33z"/>
  <path d="M858.08 728.52 c-1.35 -0.73 -3.06 -3.31 -4.04 -5.51 -3.06 -7.35 1.22 -12.86 8.57 -11.02 5.14 1.22 7.23 10.16 3.67 15.19 -1.96 2.94 -4.78 3.31 -8.20 1.35z"/>
  <path d="M779.95 725.09 c-3.80 -3.80 -4.78 -9.43 -2.08 -12.12 4.53 -4.53 14.45 0.73 14.45 7.59 0 8.45 -6.12 10.78 -12.37 4.53z"/>
  <path d="M989.48 725.09 c0 -1.96 3.06 -3.43 13.10 -6.61 5.63 -1.71 14.45 -5.39 19.72 -8.08 5.27 -2.82 10.90 -5.02 12.49 -5.02 l2.94 0 -3.67 3.80 c-5.88 6.25 -13.10 10.65 -22.90 13.96 -8.94 2.94 -21.68 4.16 -21.68 1.96z"/>
  <path d="M768.44 711.25 c-3.80 -2.20 -5.39 -4.90 -5.51 -9.18 0 -7.10 7.59 -8.82 12.74 -2.69 3.67 4.29 3.92 6.86 1.22 10.65 -2.08 2.94 -4.65 3.31 -8.45 1.22z"/>
  <path d="M809.83 704.52 c-7.84 -10.90 -26.57 -31.35 -40.41 -44.58 -18.12 -17.14 -34.17 -30 -55.47 -44.21 -52.78 -35.39 -106.91 -52.29 -157.97 -49.35 -14.94 0.86 -15.19 0.73 -13.23 -1.47 1.22 -1.22 5.02 -3.31 8.57 -4.53 23.88 -8.45 45.31 -24.74 53.88 -40.66 1.71 -3.18 3.67 -5.39 4.90 -5.39 2.69 0 2.69 0.49 -0.24 10.16 -3.06 9.92 -9.18 19.35 -17.39 26.70 l-6.25 5.76 9.06 0.86 c11.27 1.10 33.80 6.61 48.25 11.63 60.62 21.43 118.05 65.39 159.08 121.73 9.80 13.47 14.94 21.55 13.72 21.55 -0.24 0 -3.18 -3.67 -6.49 -8.20z"/>
  <path d="M851.72 705.99 c-5.63 -5.51 -3.18 -14.70 3.67 -13.84 2.69 0.24 4.29 1.47 6 4.78 2.08 3.92 2.20 4.90 0.86 8.33 -2.08 4.78 -6.25 5.14 -10.53 0.73z"/>
  <path d="M750.81 693.62 c-3.18 -4.04 -3.31 -8.57 -0.24 -10.29 6.49 -3.43 12.74 0.86 12.12 8.33 -0.37 4.29 -0.61 4.53 -4.78 4.90 -3.67 0.37 -5.02 -0.24 -7.10 -2.94z"/>
  <path d="M845.59 687.62 c-4.65 -4.53 -3.31 -11.63 2.33 -11.63 5.39 0 9.18 7.23 6.25 11.76 -2.45 3.80 -4.90 3.67 -8.57 -0.12z"/>
  <path d="M737.58 680.27 c-3.18 -2.20 -4.29 -6.25 -2.20 -7.96 0.98 -0.73 3.55 -1.22 5.76 -0.98 3.43 0.37 4.16 0.86 4.41 3.80 0.49 3.55 -1.47 6.98 -3.92 6.98 -0.73 0 -2.57 -0.86 -4.04 -1.84z"/>
  <path d="M838.25 671.70 c-5.14 -5.02 -3.80 -10.41 2.57 -10.41 4.41 0 6.61 2.45 6.61 7.59 0 6.12 -4.53 7.59 -9.18 2.82z"/>
  <path d="M829.80 657 c-3.67 -3.80 -1.84 -10.41 2.94 -10.41 3.31 0 6.37 4.29 5.88 8.20 -0.24 2.69 -1.10 3.55 -3.55 3.80 -1.84 0.24 -4.16 -0.49 -5.27 -1.59z"/>
  <path d="M822.45 643.41 c-1.22 -1.10 -1.96 -3.18 -1.71 -4.65 0.24 -1.96 1.22 -2.57 4.04 -2.57 3.43 0 3.67 0.37 3.67 4.29 0 4.90 -2.69 6.25 -6 2.94z"/>
  <path d="M855.39 623.45 c-12.49 -26.70 -31.59 -44.58 -60.50 -56.70 -15.06 -6.25 -17.88 -8.20 -19.10 -13.47 -1.10 -4.29 1.47 -4.53 7.23 -1.10 2.08 1.35 8.20 4.16 13.59 6.25 18.49 7.35 26.33 12.12 37.35 23.27 7.96 7.84 11.76 12.86 15.55 20.21 5.02 9.80 12 29.15 11.14 30.98 -0.24 0.61 -2.57 -3.67 -5.27 -9.43z"/>
  <path d="M807.26 625.90 c-5.02 -7.47 -18 -20.21 -28.41 -28.04 -23.88 -18 -30.86 -35.76 -24.12 -62.09 1.71 -6.98 3.31 -17.76 3.80 -25.10 0.61 -12.61 2.45 -20.82 6 -27.68 2.69 -5.27 8.94 -12.74 13.47 -16.16 l3.92 -2.94 -7.96 0.61 c-4.41 0.49 -16.16 2.69 -26.08 5.02 l-18.25 4.16 3.31 -3.43 c7.23 -7.47 43.60 -19.72 65.76 -22.04 25.72 -2.69 33.06 -5.51 37.72 -14.70 3.43 -6.74 3.18 -13.10 -1.10 -21.06 l-3.55 -6.61 3.06 -6.25 c7.47 -15.92 4.90 -37.72 -6 -48.98 l-3.67 -3.80 3.80 -1.96 c7.35 -3.92 8.33 -10.65 2.33 -16.53 -2.20 -2.20 -15.80 -9.92 -30.37 -17.14 l-26.33 -13.35 0.49 -11.14 c0.37 -9.55 0 -11.88 -2.33 -16.65 -3.18 -6.61 -23.27 -29.27 -32.08 -36.25 -6 -4.65 -6.25 -4.78 -16.16 -4.78 -19.10 0 -36.74 6.98 -50.58 20.08 -10.29 9.67 -15.55 18.86 -20.08 35.02 -1.71 6.37 -3.55 12.74 -4.04 14.08 -0.73 2.08 -0.61 2.08 1.22 -0.37 1.10 -1.47 2.82 -2.69 3.80 -2.69 1.59 0 1.71 1.47 0.98 9.31 -2.45 26.45 -17.39 46.90 -36.74 50.58 l-5.51 0.98 9.67 -9.31 c7.47 -7.23 10.53 -11.39 13.96 -18.49 8.20 -17.27 7.35 -19.84 -3.43 -10.04 -5.63 5.14 -21.80 14.94 -24.61 14.94 -0.61 0 1.71 -2.94 5.14 -6.37 13.59 -14.21 18 -21.31 24.98 -41.27 2.33 -6.25 6.12 -14.82 8.69 -18.98 6 -9.80 3.80 -10.29 -7.10 -1.59 -19.10 15.19 -31.59 28.66 -56.70 60.86 -7.59 9.80 -16.29 20.45 -19.47 23.63 -20.94 21.68 -44.70 23.27 -62.46 3.92 -2.82 -3.06 -5.02 -6.25 -4.65 -7.10 0.24 -0.98 4.04 -1.47 11.51 -1.47 10.65 0 11.39 -0.12 15.92 -3.80 2.57 -2.08 6 -6.25 7.72 -9.18 2.69 -4.65 3.06 -6.86 3.06 -16.41 0 -9.31 -0.49 -12.12 -3.18 -17.88 -6.98 -14.94 -20.21 -24.86 -47.15 -35.51 -9.92 -3.92 -18.37 -6.98 -18.61 -6.61 -0.37 0.37 1.35 3.80 3.80 7.59 2.33 3.92 4.16 7.23 3.92 7.47 -0.24 0.24 -5.51 -2.20 -11.63 -5.27 -24.98 -12.98 -36.98 -30.86 -36.98 -55.11 0 -9.18 0.73 -13.23 4.41 -24.86 2.45 -7.72 4.41 -16.41 4.41 -19.35 0 -7.59 2.82 -8.57 7.96 -2.57 2.20 2.57 6.25 5.27 9.31 6.37 6.86 2.45 10.53 6 12.12 11.51 1.96 7.23 1.47 7.72 -3.18 3.18 -4.04 -4.16 -4.78 -4.41 -11.14 -4.04 l-6.74 0.37 -2.33 7.35 c-2.94 9.43 -2.94 15.55 0.12 25.47 2.82 9.18 9.92 17.88 19.47 24 6.12 3.92 31.23 14.08 33.31 13.35 0.61 -0.24 -4.04 -3.92 -10.41 -8.20 -22.17 -14.82 -21.55 -18.37 1.35 -9.31 7.96 3.18 17.51 7.35 21.19 9.31 10.53 5.63 22.04 15.68 29.02 25.35 8.82 12.37 11.63 20.21 12.37 34.78 0.86 19.84 -5.39 35.15 -18.49 44.70 -6.25 4.53 -6.25 4.65 -2.94 5.02 5.63 0.73 17.02 -3.43 24.74 -8.94 9.06 -6.49 16.29 -14.08 31.84 -33.68 17.14 -21.55 43.47 -47.64 60.01 -59.27 16.29 -11.51 41.51 -24.12 55.72 -27.80 8.20 -2.20 13.96 -2.82 26.70 -2.82 17.14 -0.12 18.12 -0.49 14.08 -5.51 -6.49 -7.72 -43.47 -4.65 -64.66 5.27 -21.92 10.41 -30.74 15.19 -41.02 22.53 -14.57 10.29 -42 37.35 -59.76 59.03 -7.47 9.06 -14.70 17.88 -16.04 19.59 l-2.57 3.06 0.73 -4.90 c1.59 -10.29 3.18 -13.84 11.14 -24.49 9.92 -12.98 36.86 -41.27 48.13 -50.21 23.15 -18.37 46.78 -30.74 72.25 -37.60 5.02 -1.35 9.43 -2.69 9.67 -2.94 0.37 -0.24 -1.47 -2.57 -3.92 -5.14 -6.86 -6.98 -9.92 -15.06 -9.92 -26.08 -0.12 -8.82 0.24 -10.04 6.25 -22.04 3.55 -6.98 6.86 -14.94 7.47 -17.63 0.73 -4.04 1.47 -4.90 3.92 -5.14 2.45 -0.24 5.14 2.08 13.84 12.25 22.17 25.59 28.66 41.39 23.88 57.31 -1.35 4.78 -1.35 4.90 3.67 9.06 6.49 5.63 8.33 11.14 6.37 18.49 -1.47 5.27 -1.47 5.51 1.96 8.08 1.96 1.35 9.18 8.20 16.16 15.06 16.78 16.78 19.96 24.49 17.14 40.53 l-0.98 5.02 17.51 7.72 c28.04 12.37 38.94 18.86 42 24.74 2.57 5.02 2.08 13.10 -1.10 18.74 l-2.82 4.90 4.29 9.18 c4.16 8.57 4.41 9.92 4.41 21.43 0 11.02 -0.37 12.86 -3.43 18.61 l-3.31 6.49 3.92 7.59 c5.39 10.16 5.51 19.47 0.37 28.90 -5.76 10.53 -11.63 13.96 -32.21 19.10 -14.82 3.67 -20.70 6.49 -28.53 13.84 -10.04 9.31 -14.45 22.41 -14.57 42.98 0 3.67 -1.10 11.02 -2.57 16.53 -1.96 7.47 -2.45 12.61 -2.08 19.84 0.73 15.31 5.02 23.15 22.17 40.78 9.43 9.80 15.68 17.51 19.72 24.37 6.49 11.27 7.23 15.68 0.98 6.61z m-78.50 -426.29 c5.51 -7.35 3.92 -21.92 -3.31 -29.15 -5.39 -5.39 -8.94 -5.02 -11.27 1.22 -2.33 6.12 -1.10 12.25 3.67 17.51 l3.67 4.29 -3.80 0 c-8.20 0 -13.84 -11.39 -11.27 -22.78 2.20 -9.67 4.29 -11.88 10.65 -11.14 4.65 0.49 5.14 0.24 4.16 -1.47 -1.35 -2.57 -15.80 -16.65 -16.29 -15.92 -0.61 0.98 -6 14.08 -8.33 20.33 -3.43 9.31 -3.06 19.23 0.86 27.06 4.90 9.80 11.76 13.72 23.02 13.35 4.78 -0.24 6.49 -0.86 8.20 -3.31z"/>
  <path d="M428.25 588.67 c-2.94 -30.98 16.41 -60.62 45.07 -69.44 2.69 -0.86 14.82 -1.96 26.94 -2.45 23.76 -0.98 32.21 -2.82 42.49 -9.31 2.82 -1.84 6.12 -2.94 8.08 -2.69 3.18 0.37 2.94 0.73 -5.27 9.06 -12.74 12.98 -21.68 16.90 -47.76 21.31 -17.76 3.06 -22.04 4.16 -30.49 8.45 -11.27 5.51 -19.72 13.10 -26.45 23.63 -5.02 7.72 -9.80 20.21 -9.80 25.72 0 6.61 -2.08 3.31 -2.82 -4.29z"/>
  <path d="M1050.10 570.55 c-9.80 -10.16 -27.92 -20.45 -45.68 -26.08 -5.63 -1.71 -11.39 -3.18 -12.98 -3.18 -3.92 0 -4.41 -0.86 -2.94 -5.02 1.96 -5.51 5.39 -7.23 14.70 -7.23 21.31 0 54.01 20.08 56.82 34.90 0.73 4.16 -1.35 10.41 -3.80 11.27 -0.73 0.24 -3.55 -1.84 -6.12 -4.65z"/>
  <path d="M405.47 555.97 c-0.24 -27.31 20.57 -56.33 47.15 -65.76 4.04 -1.47 13.23 -3.80 20.57 -5.27 13.84 -2.82 25.72 -6.61 28.90 -9.31 1.10 -0.86 5.27 -2.69 9.43 -3.92 4.16 -1.35 11.02 -4.65 15.19 -7.47 4.04 -2.69 8.82 -5.02 10.41 -5.02 l2.82 0 -2.57 4.65 c-13.72 23.51 -28.78 32.82 -59.15 36.37 -21.19 2.57 -33.06 6.74 -45.56 16.16 -12.25 9.18 -20.82 22.17 -24.86 37.35 l-2.33 8.94 0 -6.74z"/>
  <path d="M1050.22 534.05 c-4.53 -4.78 -15.43 -10.41 -24.98 -13.10 -7.35 -2.08 -7.72 -2.33 -6.98 -5.27 0.37 -1.71 2.57 -5.02 4.90 -7.10 4.65 -4.41 10.53 -5.27 18.86 -2.82 2.33 0.61 4.29 1.10 4.41 0.86 0.12 -0.12 0.61 -1.71 1.10 -3.55 0.61 -2.69 0.24 -3.31 -1.96 -3.67 -1.96 -0.24 -2.82 -1.22 -2.82 -2.94 0 -3.06 9.55 -13.96 12.25 -13.96 4.41 0 3.80 11.63 -1.10 21.06 -3.06 5.76 -3.06 5.76 -0.61 8.82 5.51 7.10 7.35 15.92 4.53 22.17 -1.84 3.92 -3.43 3.92 -7.59 -0.49z"/>
  <path d="M619.53 504.05 c-10.41 -3.67 -18.12 -11.02 -21.43 -20.21 -4.16 -11.51 0 -28.41 7.10 -29.27 3.06 -0.37 3.18 -0.24 2.20 4.29 -1.96 8.57 1.47 17.27 9.06 22.90 2.45 1.96 5.14 2.57 10.41 2.57 20.94 0 29.15 -24.49 14.08 -42.13 -3.55 -4.16 -4.04 -5.14 -2.45 -5.76 5.27 -1.96 17.14 8.20 21.80 18.61 3.06 7.10 3.18 18.86 0.37 27.55 -5.63 16.90 -25.35 27.06 -41.15 21.43z"/>
  <path d="M478.70 464.98 c-5.51 -2.08 -12.49 -6.98 -11.51 -8.08 0.49 -0.37 5.63 -0.73 11.39 -0.73 8.82 0 11.76 -0.49 16.65 -2.94 7.96 -3.92 14.33 -10.41 18.49 -19.10 3.06 -6.12 3.67 -9.18 4.53 -22.78 0.61 -10.65 1.71 -17.76 3.43 -22.29 3.80 -9.92 4.78 -10.90 12.86 -11.51 l7.10 -0.61 -3.80 4.90 c-5.51 6.86 -7.23 11.63 -9.31 25.72 -0.98 6.74 -2.94 15.43 -4.29 19.35 -1.47 3.92 -2.33 7.23 -2.08 7.47 0.24 0.24 3.55 -3.67 7.47 -8.82 4.29 -5.63 7.96 -9.18 9.31 -9.18 3.18 0 2.94 1.47 -1.71 12.86 -6.98 17.27 -15.31 26.70 -29.39 33.19 -8.57 3.80 -22.41 5.02 -29.15 2.57z"/>
  <path d="M616.59 450.17 c-1.96 -0.98 -6.49 -4.65 -10.04 -8.45 -3.92 -4.16 -8.08 -7.35 -11.02 -8.20 -20.21 -6.49 -32.08 -18.74 -35.88 -36.98 -2.82 -13.72 3.06 -28.29 14.08 -34.78 8.82 -5.02 21.31 -5.63 32.21 -1.22 12.49 4.90 16.53 8.82 24.12 24 6.37 12.74 14.45 24.12 21.31 30.25 5.27 4.53 17.39 10.53 25.84 12.74 l7.96 2.08 -5.63 0.12 c-22.78 0.49 -42.49 -12.37 -55.60 -36 -10.53 -19.10 -19.59 -26.33 -33.06 -26.33 -20.94 0 -28.04 25.96 -11.88 43.35 1.84 1.84 8.94 6.12 15.80 9.43 11.02 5.27 13.23 6.86 17.39 12.61 7.10 9.55 10.41 11.76 17.39 11.76 4.41 0 6 0.49 6 1.71 0 5.02 -11.39 7.23 -18.98 3.92z"/>
  <path d="M501.48 373.02 c-15.43 -3.67 -28.41 -14.70 -36.13 -30.62 -3.92 -7.84 -5.39 -12.98 -7.23 -24.61 -1.35 -8.08 -3.18 -17.02 -4.29 -19.96 -1.96 -5.51 -7.84 -14.57 -11.02 -17.27 -2.57 -2.08 -1.35 -3.80 2.57 -3.80 4.29 0 14.21 6.49 18.74 12.25 5.88 7.47 8.45 14.57 10.41 29.39 2.57 19.84 6.12 26.94 20.57 40.78 6.25 6 13.23 11.88 15.55 13.10 l4.29 2.33 -3.67 0 c-1.96 -0.12 -6.37 -0.73 -9.80 -1.59z"/>
  <path d="M516.79 314.72 c0 -3.80 -0.73 -5.76 -3.18 -7.96 -6.74 -6.25 -14.08 -5.51 -20.82 2.20 l-4.41 5.14 0.86 -4.90 c0.37 -2.69 1.84 -6.49 3.18 -8.57 1.22 -1.96 3.06 -5.14 3.80 -6.98 1.84 -4.04 4.29 -4.29 10.53 -1.10 9.55 4.90 14.94 13.96 13.10 22.29 -1.22 5.51 -3.06 5.51 -3.06 -0.12z"/>
  <path d="M509.68 232.43 c-6.12 -3.55 -6.49 -3.92 -5.76 -7.59 1.35 -6.49 8.69 -20.57 15.06 -29.02 7.47 -9.67 23.51 -24.98 35.15 -33.19 9.06 -6.37 29.02 -17.51 34.66 -19.35 14.70 -4.90 26.45 -9.67 27.43 -11.39 1.71 -3.18 0 -6.74 -3.80 -7.59 -8.08 -1.71 -34.29 6.37 -54.25 16.78 -26.70 13.84 -53.15 38.21 -54.01 49.72 -0.24 4.53 -1.71 4.90 -6.25 1.35 -4.41 -3.43 -4.04 -6.86 1.71 -15.55 17.27 -25.84 64.17 -55.47 97.97 -61.97 9.18 -1.71 10.16 -3.67 3.80 -7.35 -5.76 -3.31 -21.55 -4.16 -31.59 -1.59 -14.08 3.67 -26.94 9.43 -39.68 17.88 -11.63 7.72 -26.45 21.43 -32.08 29.51 l-2.08 3.06 1.35 -3.67 c3.18 -9.06 10.65 -20.21 19.72 -29.15 5.27 -5.27 9.55 -9.67 9.55 -9.92 0 -0.24 -1.96 -0.86 -4.29 -1.22 -5.76 -1.10 -12.12 -7.59 -13.96 -14.57 -1.35 -4.65 -1.22 -7.96 0.49 -20.70 2.20 -15.43 1.96 -18.74 -2.08 -35.15 -0.86 -4.04 4.29 -2.57 9.80 2.57 7.10 6.61 18 14.08 28.04 19.10 13.96 7.10 19.96 16.29 18.12 28.17 -0.73 5.02 -0.61 5.39 1.47 4.65 6.12 -2.57 20.08 -4.53 26.94 -4.04 13.23 0.98 21.68 6.61 23.51 15.80 0.61 2.82 1.71 4.16 4.41 5.02 6.98 2.20 8.33 4.41 7.59 12 l-0.61 6.98 16.78 0.49 c16.53 0.61 23.63 2.08 30.37 6.61 2.69 1.71 2.69 1.96 0.98 6.25 -1.10 2.45 -2.08 4.65 -2.33 4.90 -0.24 0.24 -4.65 -0.98 -9.80 -2.69 -28.53 -9.55 -71.39 -1.10 -101.03 19.96 -22.17 15.80 -40.17 42.37 -42.62 62.82 -0.37 3.31 -1.10 6 -1.47 5.88 -0.37 0 -3.67 -1.71 -7.23 -3.80z m32.21 -127.60 c8.57 -3.06 11.27 -9.43 7.47 -18.37 -0.98 -2.20 -3.06 -5.02 -4.53 -6.12 -12.12 -8.33 -19.72 -12.98 -20.57 -12.37 -0.61 0.24 -1.10 6.49 -1.22 13.72 -0.24 15.06 1.71 19.96 8.82 23.02 4.90 2.08 4.16 2.08 10.04 0.12z"/>
  <path d="M603.73 235 c-5.39 -2.20 -9.55 -7.23 -11.02 -13.47 -4.04 -16.41 8.20 -35.15 28.17 -42.98 5.27 -2.08 9.92 -2.69 21.43 -3.06 12.86 -0.37 15.68 0 22.53 2.33 4.41 1.59 8.33 3.67 8.82 4.65 1.71 3.31 4.65 9.80 4.41 9.80 -0.12 0 -3.80 -1.10 -7.96 -2.45 -28.41 -8.94 -62.70 5.88 -62.70 26.94 0 8.08 2.69 10.29 10.90 9.18 3.67 -0.49 6.25 -0.37 6.25 0.24 0 1.96 -5.27 6.25 -10.04 8.33 -5.27 2.08 -6.49 2.20 -10.78 0.49z"/>
 </g>
</svg>